<?xml version="1.0" encoding="UTF-8" standalone="no"?>
<!-- Created with Inkscape (http://www.inkscape.org/) -->

<svg
   xmlns:dc="http://purl.org/dc/elements/1.1/"
   xmlns:cc="http://creativecommons.org/ns#"
   xmlns:rdf="http://www.w3.org/1999/02/22-rdf-syntax-ns#"
   xmlns:svg="http://www.w3.org/2000/svg"
   xmlns="http://www.w3.org/2000/svg"
   xmlns:sodipodi="http://sodipodi.sourceforge.net/DTD/sodipodi-0.dtd"
   xmlns:inkscape="http://www.inkscape.org/namespaces/inkscape"
   width="300"
   height="300"
   viewBox="0 0 26.458333 26.458333"
   version="1.1"
   id="svg8"
   inkscape:version="0.92.3 (2405546, 2018-03-11)"
   sodipodi:docname="LogoIniciales.svg">
  <defs
     id="defs2">
    <inkscape:perspective
       sodipodi:type="inkscape:persp3d"
       inkscape:vp_x="-3.7441499 : 2.330391 : 1"
       inkscape:vp_y="0 : 1791.6637 : 0"
       inkscape:vp_z="65.876096 : 2.330391 : 1"
       inkscape:persp3d-origin="31.065972 : -5.5703466 : 1"
       id="perspective3749" />
  </defs>
  <sodipodi:namedview
     id="base"
     pagecolor="#ffffff"
     bordercolor="#666666"
     borderopacity="1.0"
     inkscape:pageopacity="0.0"
     inkscape:pageshadow="2"
     inkscape:zoom="3.959798"
     inkscape:cx="83.264301"
     inkscape:cy="47.149797"
     inkscape:document-units="mm"
     inkscape:current-layer="layer1"
     showgrid="false"
     units="px"
     inkscape:window-width="1366"
     inkscape:window-height="705"
     inkscape:window-x="-8"
     inkscape:window-y="-8"
     inkscape:window-maximized="1" />
  <metadata
     id="metadata5">
    <rdf:RDF>
      <cc:Work
         rdf:about="">
        <dc:format>image/svg+xml</dc:format>
        <dc:type
           rdf:resource="http://purl.org/dc/dcmitype/StillImage" />
        <dc:title></dc:title>
      </cc:Work>
    </rdf:RDF>
  </metadata>
  <g
     inkscape:label="Capa 1"
     inkscape:groupmode="layer"
     id="layer1"
     transform="translate(0,-270.54165)">
    <path
       sodipodi:type="spiral"
       style="fill:none;fill-rule:evenodd;stroke:#00f300;stroke-width:0.26458332;stroke-opacity:1"
       id="path4580"
       sodipodi:cx="4.543582"
       sodipodi:cy="274.61618"
       sodipodi:expansion="1"
       sodipodi:revolution="3"
       sodipodi:radius="3.2631245"
       sodipodi:argument="-18.107609"
       sodipodi:t0="0"
       d="m 4.543582,274.61618 c 0.1206042,0.11055 -0.089523,0.21712 -0.1837478,0.20045 -0.2553446,-0.0451 -0.3100847,-0.36732 -0.2171566,-0.56795 0.1662267,-0.35886 0.63572,-0.42047 0.9521477,-0.23386 0.4643703,0.27386 0.5339396,0.90769 0.2505653,1.33635 -0.3776933,0.57134 -1.1809104,0.64871 -1.7205475,0.26727 -0.6790782,-0.48 -0.7641494,-1.45473 -0.2839741,-2.10475 0.5815565,-0.78725 1.7288919,-0.87997 2.4889473,-0.30067 0.8956991,0.68268 0.9960497,2.00326 0.317383,2.87314 -0.7835475,1.00432 -2.2777688,1.11229 -3.2573473,0.33409 -1.1130592,-0.88424 -1.2286321,-2.55238 -0.3507917,-3.64155 0.9848042,-1.22188 2.8270539,-1.34506 4.0257471,-0.36749 1.3307767,1.08528 1.4615551,3.10178 0.3842006,4.40994" />
    <path
       sodipodi:type="spiral"
       style="fill:none;fill-rule:evenodd;stroke:#f76400;stroke-width:0.26458332;stroke-opacity:1"
       id="path4582"
       sodipodi:cx="6.8412151"
       sodipodi:cy="287.64819"
       sodipodi:expansion="1"
       sodipodi:revolution="3"
       sodipodi:radius="1.7423842"
       sodipodi:argument="-17.84549"
       sodipodi:t0="0"
       d="m 6.8412151,287.64819 c 0.046902,0.0737 -0.07621,0.0996 -0.1224984,0.078 -0.1254392,-0.0586 -0.1090931,-0.23235 -0.033409,-0.32295 0.1353811,-0.16208 0.386034,-0.12889 0.5234029,0.0111 0.2015943,0.20549 0.1497736,0.542 -0.055681,0.72386 -0.2738383,0.24239 -0.6987814,0.17116 -0.9243072,-0.10023 -0.2838012,-0.34151 -0.1928063,-0.85597 0.1447702,-1.12476 0.4088504,-0.32554 1.0133877,-0.21461 1.3252116,0.18932 0.3674737,0.47601 0.236506,1.17094 -0.2338598,1.52566 -0.5430558,0.40954 -1.3285992,0.25847 -1.7261159,-0.2784 -0.4516837,-0.61003 -0.2804761,-1.48632 0.3229493,-1.92657 0.6769522,-0.49389 1.6440867,-0.30252 2.1270203,0.36749 0.5361479,0.74384 0.324581,1.80189 -0.4120389,2.32748" />
    <path
       sodipodi:type="spiral"
       style="fill:none;fill-rule:evenodd;stroke:#eefb00;stroke-width:0.26458332;stroke-opacity:1"
       id="path4584"
       sodipodi:cx="18.708866"
       sodipodi:cy="277.42249"
       sodipodi:expansion="1"
       sodipodi:revolution="3"
       sodipodi:radius="5.1466732"
       sodipodi:argument="-20.394384"
       sodipodi:t0="0"
       d="m 18.708866,277.42249 c 0.0067,-0.25796 0.351029,-0.11824 0.428745,0.0111 0.210605,0.35059 -0.116089,0.74925 -0.451017,0.84636 -0.599107,0.1737 -1.158445,-0.32119 -1.263962,-0.8909 -0.154852,-0.83608 0.527343,-1.57501 1.330778,-1.68157 1.070853,-0.14203 1.994426,0.73365 2.09918,1.77066 0.131823,1.30496 -0.939977,2.41525 -2.21054,2.51678 -1.538823,0.12297 -2.836902,-1.1463 -2.934398,-2.65042 -0.114895,-1.77255 1.352623,-3.25905 3.090303,-3.352 2.00622,-0.10732 3.68154,1.55894 3.769615,3.53018 0.100076,2.23985 -1.765261,4.10427 -3.970065,4.18722 -2.473456,0.0931 -4.527163,-1.97158 -4.604832,-4.40994 -0.08623,-2.70705 2.177898,-4.95019 4.849826,-5.02244" />
    <g
       sodipodi:type="inkscape:box3d"
       id="g3751"
       style="fill:#00aa00"
       inkscape:perspectiveID="#perspective3749"
       inkscape:corner0="2.0459983 : 0.026596072 : 0 : 1"
       inkscape:corner7="1.020305 : 0.01467044 : 0.51778165 : 1">
      <path
         sodipodi:type="inkscape:box3dside"
         id="path3753"
         style="fill:#353564;fill-rule:evenodd;stroke:none;stroke-width:2.17127466;stroke-linejoin:round"
         inkscape:box3dsidetype="6"
         d="m 7.683999,281.61953 v 7.01468 l 8.454731,0.87688 v -5.99552 z"
         points="7.683999,288.63421 16.13873,289.51109 16.13873,283.51557 7.683999,281.61953 " />
      <path
         sodipodi:type="inkscape:box3dside"
         id="path3763"
         style="fill:#e9e9ff;fill-rule:evenodd;stroke:none;stroke-width:2.17127466;stroke-linejoin:round"
         inkscape:box3dsidetype="11"
         d="m 16.13873,283.51557 8.035083,-4.50757 v 8.41844 l -8.035083,2.08465 z"
         points="24.173813,279.008 24.173813,287.42644 16.13873,289.51109 16.13873,283.51557 " />
      <path
         sodipodi:type="inkscape:box3dside"
         id="path3755"
         style="fill:#4d4d9f;fill-rule:evenodd;stroke:none;stroke-width:2.17127466;stroke-linejoin:round"
         inkscape:box3dsidetype="5"
         d="m 7.683999,281.61953 5.801983,-6.62542 10.687831,4.01389 -8.035083,4.50757 z"
         points="13.485982,274.99411 24.173813,279.008 16.13873,283.51557 7.683999,281.61953 " />
      <path
         sodipodi:type="inkscape:box3dside"
         id="path3761"
         style="fill:#afafde;fill-rule:evenodd;stroke:none;stroke-width:2.17127466;stroke-linejoin:round"
         inkscape:box3dsidetype="13"
         d="m 7.683999,288.63421 5.801983,-3.06411 10.687831,1.85634 -8.035083,2.08465 z"
         points="13.485982,285.5701 24.173813,287.42644 16.13873,289.51109 7.683999,288.63421 " />
      <path
         sodipodi:type="inkscape:box3dside"
         id="path3759"
         style="fill:#d7d7ff;fill-rule:evenodd;stroke:none;stroke-width:2.17127466;stroke-linejoin:round"
         inkscape:box3dsidetype="14"
         d="m 13.485982,274.99411 v 10.57599 l 10.687831,1.85634 V 279.008 Z"
         points="13.485982,285.5701 24.173813,287.42644 24.173813,279.008 13.485982,274.99411 " />
      <path
         sodipodi:type="inkscape:box3dside"
         id="path3757"
         style="fill:#8686bf;fill-rule:evenodd;stroke:none;stroke-width:2.17127466;stroke-linejoin:round"
         inkscape:box3dsidetype="3"
         d="m 7.683999,281.61953 5.801983,-6.62542 v 10.57599 l -5.801983,3.06411 z"
         points="13.485982,274.99411 13.485982,285.5701 7.683999,288.63421 7.683999,281.61953 " />
    </g>
    <text
       xml:space="preserve"
       style="font-style:normal;font-weight:normal;font-size:10.58333302px;line-height:1.25;font-family:tangak;letter-spacing:0px;word-spacing:0px;fill:#550000;fill-opacity:1;stroke:none;stroke-width:0.26458332;-inkscape-font-specification:tangak;font-stretch:normal;font-variant:normal;"
       x="4.6772165"
       y="280.42926"
       id="text3715"><tspan
         sodipodi:role="line"
         id="tspan3713"
         x="4.6772165"
         y="280.42926"
         style="stroke-width:0.26458332;-inkscape-font-specification:tangak;font-family:tangak;font-weight:normal;font-style:normal;font-stretch:normal;font-variant:normal;fill:#550000;">F</tspan></text>
    <text
       xml:space="preserve"
       style="font-style:normal;font-variant:normal;font-weight:normal;font-stretch:normal;font-size:8.53129196px;line-height:1.25;font-family:tangak;-inkscape-font-specification:tangak;letter-spacing:0px;word-spacing:0px;fill:#aa0000;fill-opacity:1;stroke:none;stroke-width:0.21328229;"
       x="5.6371469"
       y="259.77536"
       id="text3719"
       transform="scale(0.92787369,1.0777329)"><tspan
         sodipodi:role="line"
         id="tspan3717"
         x="5.6371469"
         y="259.77536"
         style="font-style:normal;font-variant:normal;font-weight:normal;font-stretch:normal;font-family:tangak;-inkscape-font-specification:tangak;fill:#aa0000;stroke-width:0.21328229;">F</tspan></text>
    <text
       xml:space="preserve"
       style="font-style:normal;font-variant:normal;font-weight:normal;font-stretch:normal;font-size:10.58333302px;line-height:1.25;font-family:tangak;-inkscape-font-specification:tangak;letter-spacing:0px;word-spacing:0px;fill:#000080;fill-opacity:1;stroke:none;stroke-width:0.26458332;"
       x="6.8153729"
       y="285.30695"
       id="text3723"><tspan
         sodipodi:role="line"
         id="tspan3721"
         x="6.8153729"
         y="285.30695"
         style="font-style:normal;font-variant:normal;font-weight:normal;font-stretch:normal;font-family:tangak;-inkscape-font-specification:tangak;fill:#000080;stroke-width:0.26458332;">R</tspan></text>
    <text
       xml:space="preserve"
       style="font-style:normal;font-variant:normal;font-weight:normal;font-stretch:normal;font-size:9.25352478px;line-height:1.25;font-family:tangak;-inkscape-font-specification:tangak;letter-spacing:0px;word-spacing:0px;fill:#0000ff;fill-opacity:1;stroke:none;stroke-width:0.2313381"
       x="7.6072431"
       y="274.43478"
       id="text3727"
       transform="scale(0.96288826,1.0385421)"><tspan
         sodipodi:role="line"
         id="tspan3725"
         x="7.6072431"
         y="274.43478"
         style="font-style:normal;font-variant:normal;font-weight:normal;font-stretch:normal;font-family:tangak;-inkscape-font-specification:tangak;fill:#0000ff;stroke-width:0.2313381">R</tspan></text>
    <text
       xml:space="preserve"
       style="font-style:normal;font-variant:normal;font-weight:normal;font-stretch:normal;font-size:9.91591454px;line-height:1.25;font-family:tangak;-inkscape-font-specification:tangak;letter-spacing:0px;word-spacing:0px;fill:#552200;fill-opacity:1;stroke:none;stroke-width:0.24789786"
       x="11.1121"
       y="287.35419"
       id="text3735"
       transform="scale(1.0290849,0.97173716)"><tspan
         sodipodi:role="line"
         id="tspan3733"
         x="11.1121"
         y="287.35419"
         style="font-style:normal;font-variant:normal;font-weight:normal;font-stretch:normal;font-family:tangak;-inkscape-font-specification:tangak;fill:#552200;stroke-width:0.24789786">C</tspan></text>
    <text
       xml:space="preserve"
       style="font-style:normal;font-variant:normal;font-weight:normal;font-stretch:normal;font-size:8.87887383px;line-height:1.25;font-family:tangak;-inkscape-font-specification:tangak;letter-spacing:0px;word-spacing:0px;fill:#aa4400;fill-opacity:1;stroke:none;stroke-width:0.22197185"
       x="11.583605"
       y="282.48987"
       id="text3739"
       transform="scale(1.0120854,0.98805894)"><tspan
         sodipodi:role="line"
         id="tspan3737"
         x="11.583605"
         y="282.48987"
         style="font-style:normal;font-variant:normal;font-weight:normal;font-stretch:normal;font-family:tangak;-inkscape-font-specification:tangak;fill:#aa4400;stroke-width:0.22197185">C</tspan></text>
    <text
       xml:space="preserve"
       style="font-style:normal;font-variant:normal;font-weight:normal;font-stretch:normal;font-size:10.58333302px;line-height:1.25;font-family:tangak;-inkscape-font-specification:tangak;letter-spacing:0px;word-spacing:0px;fill:#005500;fill-opacity:1;stroke:none;stroke-width:0.26458332"
       x="15.902537"
       y="284.70557"
       id="text3743"><tspan
         sodipodi:role="line"
         id="tspan3741"
         x="15.902537"
         y="284.70557"
         style="font-style:normal;font-variant:normal;font-weight:normal;font-stretch:normal;font-family:tangak;-inkscape-font-specification:tangak;fill:#005500;stroke-width:0.26458332">A</tspan></text>
    <text
       xml:space="preserve"
       style="font-style:normal;font-variant:normal;font-weight:normal;font-stretch:normal;font-size:8.86975574px;line-height:1.25;font-family:tangak;-inkscape-font-specification:tangak;letter-spacing:0px;word-spacing:0px;fill:#00aa00;fill-opacity:1;stroke:none;stroke-width:0.22174391"
       x="17.524796"
       y="267.64972"
       id="text3747"
       transform="scale(0.94172309,1.0618833)"><tspan
         sodipodi:role="line"
         id="tspan3745"
         x="17.524796"
         y="267.64972"
         style="font-style:normal;font-variant:normal;font-weight:normal;font-stretch:normal;font-family:tangak;-inkscape-font-specification:tangak;fill:#00aa00;stroke-width:0.22174391">A</tspan></text>
    <rect
       y="287.64819"
       x="-1.5777748"
       height="9.6217022"
       width="8.4189901"
       id="use4572"
       style="fill:none;stroke-width:0.26458332" />
    <rect
       y="285.47919"
       x="6.0496616"
       height="9.6217022"
       width="8.4189901"
       id="use4574"
       style="fill:none;stroke-width:0.26458332" />
  </g>
</svg>
